<svg xmlns="http://www.w3.org/2000/svg" viewBox="0 0 64 64"><defs><clipPath id="t"><rect width="64" height="64" rx="14"/></clipPath></defs><rect width="64" height="64" rx="14" fill="#0c0e12"/><g clip-path="url(#t)"><path d="M32 26 L0 0 H64 Z" fill="#e9ffb3"/><path d="M32 26 L0 0 V64 Z" fill="#d4fd80"/><path d="M32 26 L64 0 V64 Z" fill="#2a3038"/><path d="M32 26 L0 64 H64 Z" fill="#0c0e12"/></g><path d="M16 51 L16 27 L32 14 L48 27 L48 51 Z" fill="none" stroke="#ffffff" stroke-width="3.6" stroke-linejoin="round"/><path d="M17.674 50.421C18.341 50.421 18.921 50.131 19.269 49.638C26.548 49.406 31.362 47.347 31.362 42.968C31.362 41.054 30.202 39.662 28.201 38.676C29.390 37.719 30.115 36.356 30.115 34.645C30.115 30.324 26.490 28.207 20.748 28.207C19.762 28.207 18.660 28.265 17.210 28.410C16.166 28.497 15.354 29.367 15.354 30.440C15.354 32.876 15.644 47.376 15.644 48.391C15.644 49.522 16.543 50.421 17.674 50.421M19.443 32.296C19.907 32.267 20.342 32.267 20.748 32.267C24.489 32.267 26.055 33.079 26.055 34.645C26.055 36.008 24.605 37.023 21.850 37.139C21.096 37.052 20.313 36.994 19.530 36.965M19.588 41.054C24.083 41.286 27.302 42.330 27.302 42.968C27.302 44.186 24.518 45.317 19.675 45.549M40.497 49.493C45.398 49.493 49.081 46.361 49.081 42.185C49.081 38.270 46.036 36.588 40.555 36.327C38.032 36.211 37.771 35.921 37.771 35.283C37.771 33.601 39.105 32.586 41.599 32.586C44.934 32.586 45.398 33.456 46.413 33.456C47.544 33.456 48.443 32.557 48.443 31.426C48.443 30.556 47.892 29.831 47.138 29.541C45.485 28.845 43.658 28.526 41.599 28.526C36.901 28.526 33.711 31.252 33.711 35.283C33.711 38.676 36.060 40.184 40.381 40.387C44.122 40.561 45.021 41.141 45.021 42.185C45.021 44.012 43.194 45.433 40.497 45.433C38.293 45.433 37.046 45.056 35.770 43.983C35.422 43.693 34.958 43.519 34.465 43.519C33.334 43.519 32.435 44.418 32.435 45.549C32.435 46.187 32.725 46.738 33.189 47.115C35.190 48.768 37.423 49.493 40.497 49.493" fill="#ffffff"/></svg>
