<svg xmlns="http://www.w3.org/2000/svg" viewBox="0 0 64 64"><defs><clipPath id="t"><rect width="64" height="64" rx="14"/></clipPath></defs><rect width="64" height="64" rx="14" fill="#0c0e12"/><g clip-path="url(#t)"><path d="M32 26 L0 0 H64 Z" fill="#e9ffb3"/><path d="M32 26 L0 0 V64 Z" fill="#d4fd80"/><path d="M32 26 L64 0 V64 Z" fill="#2a3038"/><path d="M32 26 L0 64 H64 Z" fill="#0c0e12"/></g><path d="M16 51 L16 27 L32 14 L48 27 L48 51 Z" fill="none" stroke="#ffffff" stroke-width="3.6" stroke-linejoin="round"/><path d="M25.500 49.500L16.050 49.500L16.050 32L25 32Q28.450 32 30.150 33.263Q31.850 34.525 31.850 36.575Q31.850 37.925 31.150 38.925Q30.525 39.800 29.475 40.375Q29.650 40.425 29.800 40.475Q31.175 41.050 31.937 42.112Q32.700 43.175 32.700 44.700Q32.700 46.975 30.862 48.237Q29.025 49.500 25.500 49.500M20.950 42.375L20.950 45.925L25.100 45.925Q26.375 45.925 27.037 45.487Q27.700 45.050 27.700 44.150Q27.700 43.250 27.037 42.813Q26.375 42.375 25.100 42.375L20.950 42.375M20.950 35.575L20.950 38.950L24.350 38.950Q25.600 38.950 26.225 38.525Q26.850 38.100 26.850 37.250Q26.850 36.400 26.225 35.987Q25.600 35.575 24.350 35.575L20.950 35.575M41.425 49.850Q39.275 49.850 37.288 49.313Q35.300 48.775 34.050 47.925L35.675 44.275Q36.850 45.025 38.388 45.513Q39.925 46 41.450 46Q42.475 46 43.100 45.813Q43.725 45.625 44.013 45.313Q44.300 45 44.300 44.575Q44.300 43.975 43.750 43.625Q43.200 43.275 42.325 43.050Q41.450 42.825 40.388 42.600Q39.325 42.375 38.262 42.025Q37.200 41.675 36.325 41.112Q35.450 40.550 34.900 39.638Q34.350 38.725 34.350 37.325Q34.350 35.750 35.212 34.475Q36.075 33.200 37.800 32.425Q39.525 31.650 42.100 31.650Q43.825 31.650 45.487 32.037Q47.150 32.425 48.450 33.175L46.925 36.850Q45.675 36.175 44.450 35.837Q43.225 35.500 42.075 35.500Q41.050 35.500 40.425 35.712Q39.800 35.925 39.525 36.275Q39.250 36.625 39.250 37.075Q39.250 37.650 39.788 37.987Q40.325 38.325 41.212 38.538Q42.100 38.750 43.163 38.975Q44.225 39.200 45.288 39.538Q46.350 39.875 47.225 40.438Q48.100 41 48.638 41.913Q49.175 42.825 49.175 44.200Q49.175 45.725 48.313 47.013Q47.450 48.300 45.737 49.075Q44.025 49.850 41.425 49.850" fill="#ffffff"/></svg>
